<?xml version="1.0" encoding="utf-8"?>
<!-- Generator: Adobe Illustrator 27.0.0, SVG Export Plug-In . SVG Version: 6.00 Build 0)  -->
<svg version="1.1" id="Layer_1" xmlns="http://www.w3.org/2000/svg" xmlns:xlink="http://www.w3.org/1999/xlink" x="0px" y="0px"
	 viewBox="0 0 1920 305.5" style="enable-background:new 0 0 1920 305.5;" xml:space="preserve">
<style type="text/css">
	.st0{fill:#FC4F4F;}
	.st1{fill:#FFFFFF;}
	.st2{fill:#CCCCCC;}
</style>
<g>
	<g>
		<path class="st0" d="M136.2,290.9c-19.8-0.5-36.3-7.4-49.6-20.6L9.7,193.3c-0.4-0.4-0.6-0.9-0.6-1.5c0-0.6,0.2-1.2,0.6-1.5
			L139.6,60.3c0.5-0.5,1.1-0.8,1.7-0.8c0.6,0,1.2,0.2,1.5,0.6l35.3,35.3c0.5,0.5,0.8,1.1,0.8,1.7s-0.3,1.2-0.8,1.7l-98.5,98.5l32,32
			c4.4,4.4,9.8,6.6,16.4,6.7l144.2,1c0.8,0,1.4,0.2,1.7,0.6l49.2,49.2c0.8,0.8,1,1.6,0.6,2.5c-0.4,0.9-1.2,1.4-2.3,1.5H136.2z"/>
		<path class="st0" d="M279.6,6.3c19.8,0.5,36.3,7.4,49.6,20.6l76.9,76.9c0.4,0.4,0.6,0.9,0.6,1.5c0,0.6-0.2,1.2-0.6,1.5
			L276.2,236.8c-0.5,0.5-1.1,0.8-1.7,0.8c-0.6,0-1.2-0.2-1.5-0.6l-35.3-35.3c-0.5-0.5-0.8-1.1-0.8-1.7c0-0.6,0.3-1.2,0.8-1.7
			l98.5-98.5l-32-32c-4.4-4.4-9.8-6.6-16.4-6.7l-143.9-1c-0.8,0-1.4-0.2-1.7-0.6L93,10.3c-0.8-0.8-1-1.6-0.6-2.5s1.2-1.4,2.3-1.5
			H279.6z"/>
	</g>
	<g>
		<path class="st1" d="M491.3,246.4V61.6H556l31.9,161h4.8l31.9-161h64.7v184.8h-33.8V87.2h-4.8L619,246.4h-57.5L529.8,87.2h-4.8
			v159.2H491.3z"/>
		<path class="st1" d="M732.5,100.2c-6,0-11-1.9-15.2-5.8c-4.1-3.9-6.2-9-6.2-15.3c0-6.3,2.1-11.4,6.2-15.3
			c4.1-3.9,9.2-5.8,15.2-5.8c6.2,0,11.3,1.9,15.3,5.8c4,3.9,6.1,9,6.1,15.3c0,6.3-2,11.4-6.1,15.3
			C743.8,98.2,738.7,100.2,732.5,100.2z M715.9,246.4V115.5h33.3v130.9H715.9z"/>
		<path class="st1" d="M776.9,246.4V115.5h32.7v17.2h4.8c2.1-4.6,6.1-8.9,11.9-13.1c5.8-4.1,14.6-6.2,26.4-6.2
			c10.2,0,19.1,2.3,26.8,7c7.7,4.7,13.6,11.1,17.8,19.3c4.2,8.2,6.3,17.7,6.3,28.6v78.1h-33.3v-75.5c0-9.9-2.4-17.2-7.3-22.2
			c-4.8-4.9-11.7-7.4-20.7-7.4c-10.2,0-18.1,3.4-23.8,10.2c-5.6,6.8-8.4,16.2-8.4,28.4v66.5H776.9z"/>
		<path class="st1" d="M983.1,250.1c-10.4,0-20.1-2.6-29.2-7.8c-9.1-5.2-16.3-12.8-21.8-22.8c-5.5-10-8.2-22.2-8.2-36.4v-4.2
			c0-14.3,2.7-26.4,8.2-36.4c5.5-10,12.7-17.6,21.6-22.8c9-5.2,18.7-7.8,29.3-7.8c7.9,0,14.6,0.9,19.9,2.8c5.4,1.8,9.7,4.2,13.1,7
			c3.3,2.8,5.9,5.8,7.7,9h4.8V61.6h33.3v184.8H1029v-15.8h-4.8c-3,4.9-7.6,9.4-13.9,13.5C1004.1,248.1,995,250.1,983.1,250.1z
			 M993.1,221.1c10.2,0,18.7-3.3,25.6-9.9c6.9-6.6,10.3-16.2,10.3-28.9v-2.6c0-12.7-3.4-22.3-10.2-28.9c-6.8-6.6-15.4-9.9-25.7-9.9
			c-10.2,0-18.7,3.3-25.6,9.9c-6.9,6.6-10.3,16.2-10.3,28.9v2.6c0,12.7,3.4,22.3,10.3,28.9C974.3,217.8,982.9,221.1,993.1,221.1z"/>
		<path class="st2" d="M1088.4,246.4V61.6h116.1v31.7h-81.3v44.6h75v31.7h-75v76.8H1088.4z"/>
		<path class="st2" d="M1282.4,250.1c-13,0-24.7-2.6-35.1-7.9c-10.4-5.3-18.6-12.9-24.5-23c-6-10-9-22.1-9-36.2v-4.2
			c0-14.1,3-26.1,9-36.2c6-10,14.2-17.7,24.5-23c10.4-5.3,22.1-7.9,35.1-7.9c13,0,24.7,2.6,35.1,7.9c10.4,5.3,18.6,12.9,24.5,23
			c6,10,9,22.1,9,36.2v4.2c0,14.1-3,26.1-9,36.2c-6,10-14.2,17.7-24.5,23C1307.1,247.5,1295.4,250.1,1282.4,250.1z M1282.4,220.5
			c10.2,0,18.7-3.3,25.3-9.9c6.7-6.6,10-16.1,10-28.4v-2.6c0-12.3-3.3-21.8-9.9-28.4c-6.6-6.6-15.1-9.9-25.5-9.9
			c-10.2,0-18.7,3.3-25.3,9.9c-6.7,6.6-10,16.1-10,28.4v2.6c0,12.3,3.3,21.8,10,28.4C1263.7,217.2,1272.2,220.5,1282.4,220.5z"/>
		<path class="st2" d="M1372.4,246.4V115.5h32.7v14.8h4.7c1.9-5.3,5.1-9.1,9.6-11.6c4.5-2.5,9.7-3.7,15.7-3.7h15.8v29.6h-16.4
			c-8.4,0-15.4,2.2-20.9,6.7c-5.5,4.5-8.2,11.4-8.2,20.7v74.4H1372.4z"/>
		<path class="st2" d="M1456.6,181.5v-4.2c0-13.7,2.7-25.5,8.2-35.2c5.5-9.8,12.7-17.2,21.8-22.4c9.1-5.2,19-7.8,29.7-7.8
			c12,0,21,2.1,27.2,6.3c6.2,4.2,10.6,8.6,13.5,13.2h4.8v-15.8h32.7v154.2c0,9-2.6,16.1-7.9,21.5c-5.3,5.4-12.3,8.1-21.1,8.1h-87.6
			v-29h76c4.9,0,7.4-2.6,7.4-7.9v-34.1h-4.8c-1.8,2.8-4.2,5.7-7.4,8.6c-3.2,2.9-7.4,5.3-12.7,7.3c-5.3,1.9-12,2.9-20.1,2.9
			c-10.7,0-20.6-2.6-29.7-7.8c-9.1-5.2-16.3-12.7-21.8-22.4C1459.3,206.9,1456.6,195.2,1456.6,181.5z M1525.8,217.9
			c10.2,0,18.7-3.3,25.6-9.8c6.9-6.5,10.3-15.7,10.3-27.5V178c0-12-3.4-21.2-10.2-27.6c-6.8-6.4-15.4-9.6-25.7-9.6
			c-10.2,0-18.7,3.2-25.6,9.6c-6.9,6.4-10.3,15.6-10.3,27.6v2.6c0,11.8,3.4,20.9,10.3,27.5C1507,214.6,1515.6,217.9,1525.8,217.9z"
			/>
		<path class="st2" d="M1681.8,250.1c-13,0-24.5-2.8-34.4-8.3c-9.9-5.5-17.7-13.4-23.2-23.5c-5.5-10.1-8.3-22-8.3-35.8v-3.2
			c0-13.7,2.7-25.6,8.2-35.8c5.5-10.1,13.1-17.9,23-23.5c9.9-5.5,21.3-8.3,34.3-8.3c12.8,0,24,2.9,33.5,8.6
			c9.5,5.7,16.9,13.6,22.2,23.8c5.3,10.1,7.9,21.9,7.9,35.2v11.4h-95.3c0.3,9,3.7,16.3,10,21.9c6.3,5.6,14.1,8.4,23.2,8.4
			c9.3,0,16.2-2,20.6-6.1c4.4-4,7.7-8.5,10-13.5l27.2,14.3c-2.5,4.6-6,9.5-10.7,14.9c-4.7,5.4-10.9,9.9-18.6,13.7
			C1703.6,248.2,1693.8,250.1,1681.8,250.1z M1649.9,165.9h61.2c-0.7-7.6-3.7-13.6-9.1-18.2c-5.4-4.6-12.4-6.9-21-6.9
			c-9,0-16.1,2.3-21.4,6.9C1654.3,152.3,1651.1,158.3,1649.9,165.9z"/>
		<path class="st2" d="M1752.5,246.4l54.1-93.2l-53.6-91.6h39.6l36.7,66.8h4.8l36.7-66.8h39.6l-53.6,91.6l54.1,93.2h-39.6
			l-37.2-68.4h-4.8l-37.2,68.4H1752.5z"/>
	</g>
</g>
</svg>
