<?xml version="1.0" standalone="no"?>
<!DOCTYPE svg PUBLIC "-//W3C//DTD SVG 20010904//EN"
 "http://www.w3.org/TR/2001/REC-SVG-20010904/DTD/svg10.dtd">
<svg version="1.0" xmlns="http://www.w3.org/2000/svg"
 width="512.000000pt" height="512.000000pt" viewBox="0 0 512.000000 512.000000"
 preserveAspectRatio="xMidYMid meet">

<g transform="translate(0.000000,512.000000) scale(0.100000,-0.100000)"
fill="#000000" stroke="none">
<path d="M2330 5110 c-890 -86 -1671 -622 -2060 -1415 -161 -327 -236 -606
-262 -973 -24 -335 30 -719 147 -1038 54 -147 184 -404 271 -534 611 -915
1716 -1339 2775 -1066 612 157 1141 537 1501 1078 80 120 212 381 263 522 117
319 171 703 147 1038 -13 191 -32 304 -77 484 -45 177 -91 298 -185 489 -134
272 -293 489 -517 705 -208 202 -386 327 -648 455 -250 123 -480 195 -750 236
-151 23 -462 32 -605 19z m371 -1757 l135 -418 441 -5 441 -5 -349 -254 c-192
-140 -352 -258 -355 -262 -3 -5 56 -195 131 -423 74 -228 135 -417 135 -420 0
-3 -158 110 -352 251 -194 140 -357 257 -363 259 -5 2 -170 -112 -365 -255
-195 -142 -356 -257 -358 -256 -2 2 58 190 133 420 93 284 133 420 126 428 -5
7 -165 125 -354 262 l-345 250 441 5 441 5 135 418 c75 229 138 417 141 417 3
0 66 -188 141 -417z"/>
</g>
</svg>
